<svg xmlns="http://www.w3.org/2000/svg" viewBox="0 0 30 24">
  <g stroke="none" stroke-width="1" fill="none" fill-rule="evenodd">
    <g id="\u753B\u677F" transform="translate(-26.000000, -14.000000)">
      <g id="\u7F16\u7EC4-6\u5907\u4EFD" transform="translate(26.000000, 14.000000)">
        <g id="\u7F16\u7EC4-3">
          <g id="\u7F16\u7EC4\u5907\u4EFD-2">
            <path d="M5.97892249,6.74254507 L16.53,6.61743348 C19.3443465,6.58406178 21.6528783,8.83848732 21.68625,11.6528339 C21.6867276,11.6931157 21.6867276,11.7334017 21.68625,11.7736835 L21.6848884,11.888511 C21.6512381,14.7263497 19.3589163,17.0186716 16.5210775,17.0523219 L5.97,17.1774335 C3.15565346,17.2108052 0.847121698,14.9563796 0.81375,12.1420331 C0.81327235,12.1017513 0.81327235,12.0614653 0.81375,12.0211835 L0.815111591,11.906356 C0.848761853,9.06851721 3.14108374,6.77619533 5.97892249,6.74254507 Z" id="\u77E9\u5F62\u5907\u4EFD-3" fill="#12D2AC" transform="translate(11.250000, 11.897433) rotate(-45.000000) translate(-11.250000, -11.897433) "></path>
            <path d="M13.2680433,6.61743348 L23.7042933,6.74118348 C26.6059852,6.77559089 28.9498858,9.11949151 28.9842933,12.0211835 C29.017665,14.83553 26.7632394,17.1440618 23.9488929,17.1774335 C23.9086111,17.1779111 23.868325,17.1779111 23.8280433,17.1774335 L13.3917933,17.0536835 C10.4901013,17.0192761 8.14620067,14.6753754 8.11179325,11.7736835 C8.07842156,8.95933693 10.3328471,6.65080517 13.1471936,6.61743348 C13.1874754,6.61695583 13.2277615,6.61695583 13.2680433,6.61743348 Z" id="\u77E9\u5F62\u5907\u4EFD-7" fill="#307AF2" transform="translate(18.548043, 11.897433) rotate(-315.000000) translate(-18.548043, -11.897433) "></path>
            <path d="M14.9646154,2.94345291 L20.0496701,3.00375 L20.0496701,3.00375 L20.1734201,13.44 L9.7371701,13.31625 L9.67687301,8.23119527 C9.64265028,5.34507853 11.9545672,2.97767564 14.8406839,2.94345291 C14.8819929,2.94296308 14.9233063,2.94296308 14.9646154,2.94345291 Z" id="\u77E9\u5F62" fill="#0057FE" transform="translate(14.893420, 8.160000) rotate(-315.000000) translate(-14.893420, -8.160000) "></path>
          </g>
        </g>
      </g>
    </g>
  </g>
</svg>